<svg width="205" height="99" viewBox="0 0 205 99" fill="none" xmlns="http://www.w3.org/2000/svg">
<path d="M91.3705 17.9249L91.3704 17.925L60.3375 48.9874L60.1492 49.1758L60.3377 49.3641L91.4 80.3969C91.4 80.397 91.4001 80.397 91.4001 80.397C94.9799 83.9769 94.9798 89.7907 91.4 93.3705C87.8202 96.9504 82.0062 96.9504 78.4264 93.3705L78.4263 93.3704L47.3639 62.3375L47.1755 62.1492L46.9872 62.3377L15.9543 93.4C12.3745 96.9799 6.56058 96.9799 2.98075 93.4C-0.599083 89.8202 -0.599083 84.0062 2.98075 80.4264L2.98084 80.4263L34.0138 49.3639L34.202 49.1755L34.0136 48.9872L2.95128 17.9543C2.95125 17.9543 2.95122 17.9543 2.95119 17.9543C-0.628554 14.3744 -0.628524 8.56055 2.95128 4.98075C6.53111 1.40092 12.345 1.40092 15.9249 4.98075L15.925 4.98084L46.9874 36.0138L47.1758 36.202L47.3641 36.0136L78.3969 4.95128C78.397 4.95125 78.397 4.95122 78.397 4.95119C81.9769 1.37145 87.7907 1.37148 91.3705 4.95128C94.9504 8.53111 94.9504 14.345 91.3705 17.9249Z" fill="#3D348B" stroke="#3D348B" stroke-width="0.532808"/>
<path d="M122.965 49.6864C122.965 31.519 137.679 16.8045 155.846 16.8045C174.014 16.8045 188.728 31.519 188.728 49.6864C188.728 67.8538 174.014 82.5683 155.846 82.5683C137.679 82.5683 122.965 67.8538 122.965 49.6864ZM155.846 1.73362C129.365 1.73362 107.894 23.2053 107.894 49.6864C107.894 76.1675 129.365 97.6391 155.846 97.6391C182.328 97.6391 203.799 76.1675 203.799 49.6864C203.799 23.2053 182.328 1.73362 155.846 1.73362Z" fill="#E6AF2E" stroke="#E6AF2E" stroke-width="1.59843"/>
</svg>
