<svg width="95" height="95" viewBox="0 0 95 95" fill="none" xmlns="http://www.w3.org/2000/svg">
<path d="M91.3705 15.9249L91.3705 15.925L60.3375 46.9874L60.1492 47.1758L60.3377 47.3641L91.4 78.3969C91.4 78.397 91.4001 78.397 91.4001 78.397C94.9799 81.9769 94.9798 87.7907 91.4 91.3705C87.8202 94.9504 82.0062 94.9504 78.4264 91.3705L78.4263 91.3704L47.3639 60.3375L47.1755 60.1492L46.9872 60.3377L15.9543 91.4C15.9543 91.4 15.9543 91.4001 15.9543 91.4001C12.3744 94.9799 6.56055 94.9798 2.98075 91.4C-0.599083 87.8202 -0.599083 82.0062 2.98075 78.4264L2.98084 78.4263L34.0138 47.3639L34.202 47.1755L34.0136 46.9872L2.95128 15.9543C2.95125 15.9543 2.95122 15.9543 2.95119 15.9543C-0.628554 12.3744 -0.628524 6.56055 2.95128 2.98075C6.53111 -0.599084 12.345 -0.599084 15.9249 2.98075L15.925 2.98084L46.9874 34.0138L47.1758 34.202L47.3641 34.0136L78.3969 2.95128C78.397 2.95125 78.397 2.95122 78.397 2.95119C81.9769 -0.628553 87.7907 -0.628524 91.3705 2.95128C94.9504 6.53111 94.9504 12.345 91.3705 15.9249Z" fill="#3D348B" stroke="#3D348B" stroke-width="0.532808"/>
</svg>
